<svg xmlns="http://www.w3.org/2000/svg" fill="none" viewBox="0 0 176 144"><path fill="#CCECFF" d="M6.118 5a4 4 0 0 1 4-4H76c6.627 0 12 5.373 12 12v8.483a4 4 0 0 1-4 4H10.118a4 4 0 0 1-4-4V5z" filter="url(#filter0_i)"/><path stroke="#87D2FF" d="M76 .5H10.118a4.5 4.5 0 0 0-4.5 4.5v16.483a4.5 4.5 0 0 0 4.5 4.5H84a4.5 4.5 0 0 0 4.5-4.5V13C88.5 6.096 82.904.5 76 .5z"/><rect width="174" height="132.207" x="1" y="10.793" fill="#CCECFF" filter="url(#filter1_i)" rx="4"/><rect width="175" height="133.207" x=".5" y="10.293" stroke="#87D2FF" rx="4.5"/><rect width="174" height="132.207" x="1" y="10.793" fill="url(#paint0_linear)" rx="4"/><defs><filter id="filter0_i" width="83.882" height="26.483" x="5.118" y="0" color-interpolation-filters="sRGB" filterUnits="userSpaceOnUse"><feFlood flood-opacity="0" result="BackgroundImageFix"/><feBlend in="SourceGraphic" in2="BackgroundImageFix" result="shape"/><feColorMatrix in="SourceAlpha" result="hardAlpha" values="0 0 0 0 0 0 0 0 0 0 0 0 0 0 0 0 0 0 127 0"/><feOffset dy="2"/><feComposite in2="hardAlpha" k2="-1" k3="1" operator="arithmetic"/><feColorMatrix values="0 0 0 0 1 0 0 0 0 1 0 0 0 0 1 0 0 0 1 0"/><feBlend in2="shape" result="effect1_innerShadow"/></filter><filter id="filter1_i" width="176" height="134.207" x="0" y="9.793" color-interpolation-filters="sRGB" filterUnits="userSpaceOnUse"><feFlood flood-opacity="0" result="BackgroundImageFix"/><feBlend in="SourceGraphic" in2="BackgroundImageFix" result="shape"/><feColorMatrix in="SourceAlpha" result="hardAlpha" values="0 0 0 0 0 0 0 0 0 0 0 0 0 0 0 0 0 0 127 0"/><feOffset dy="2"/><feComposite in2="hardAlpha" k2="-1" k3="1" operator="arithmetic"/><feColorMatrix values="0 0 0 0 1 0 0 0 0 1 0 0 0 0 1 0 0 0 1 0"/><feBlend in2="shape" result="effect1_innerShadow"/></filter><linearGradient id="paint0_linear" x1="88" x2="88" y1="10.793" y2="143" gradientUnits="userSpaceOnUse"><stop stop-color="#fff" stop-opacity=".72"/><stop offset="1" stop-color="#fff" stop-opacity="0"/></linearGradient></defs></svg>